<svg height="438pt" viewBox="0 -77 438.8575 438" width="500px" xmlns="http://www.w3.org/2000/svg"><path d="m429.714844 128.429688c0-50.496094-49.121094-91.429688-109.714844-91.429688s-109.714844 40.933594-109.714844 91.429688c0 50.496093 49.121094 91.429687 109.714844 91.429687 10.6875 0 20.988281-1.335937 30.753906-3.710937l33.246094 30.753906v-44.316406c27.648438-16.597657 45.714844-43.589844 45.714844-74.15625zm0 0" fill="#e7e4e1"/><path d="m393.144531 267.8125-45.074219-41.691406c-9.273437 1.910156-18.695312 2.878906-28.070312 2.878906-65.539062 0-118.855469-45.117188-118.855469-100.570312 0-55.457032 53.316407-100.574219 118.855469-100.574219s118.859375 45.117187 118.859375 100.574219c0 30.925781-16.992187 60.191406-45.714844 79.199218zm-39.78125-61.710938 21.496094 19.890626v-28.578126l4.4375-2.664062c25.84375-15.523438 41.273437-40.3125 41.273437-66.320312 0-45.371094-45.113281-82.285157-100.570312-82.285157-55.453125 0-100.570312 36.914063-100.570312 82.285157 0 45.371093 45.117187 82.285156 100.570312 82.285156 9.558594 0 19.179688-1.160156 28.59375-3.449219zm0 0" fill="#2a3d4f"/><path d="m146.285156 9.574219c-75.738281 0-137.140625 53.210937-137.140625 118.855469 0 35.15625 17.71875 66.652343 45.714844 88.414062v48.34375l35.773437-28.1875c17.023438 6.5625 35.820313 10.285156 55.652344 10.285156 75.742188 0 137.144532-53.210937 137.144532-118.855468 0-65.644532-61.402344-118.855469-137.144532-118.855469zm0 0" fill="#eb675e"/><g fill="#2a3d4f"><path d="m45.714844 284.03125v-62.808594c-29.113282-24.160156-45.714844-57.738281-45.714844-92.792968 0-70.582032 65.625-128 146.285156-128s146.285156 57.417968 146.285156 128c0 70.578124-65.625 128-146.285156 128-18.574218 0-36.71875-3.054688-54.003906-9.085938zm100.570312-265.316406c-70.578125 0-128 49.21875-128 109.714844 0 30.761718 15.375 60.355468 42.183594 81.195312l3.53125 2.746094v33.972656l25.066406-19.746094 4.859375 1.871094c16.644531 6.417969 34.265625 9.675781 52.359375 9.675781 70.582032 0 128-49.21875 128-109.714843 0-60.496094-57.417968-109.714844-128-109.714844zm0 0"/><path d="m196.15625 82.332031h-99.742188c-5.046874 0-9.140624-4.09375-9.140624-9.144531 0-5.046875 4.09375-9.144531 9.140624-9.144531h99.742188c5.050781 0 9.144531 4.097656 9.144531 9.144531 0 5.050781-4.09375 9.144531-9.144531 9.144531zm0 0"/><path d="m196.15625 192.042969h-99.742188c-5.046874 0-9.140624-4.089844-9.140624-9.140625 0-5.050782 4.09375-9.144532 9.140624-9.144532h99.742188c5.050781 0 9.144531 4.09375 9.144531 9.144532 0 5.050781-4.09375 9.140625-9.144531 9.140625zm0 0"/><path d="m237.714844 137.1875h-182.859375c-5.046875 0-9.140625-4.09375-9.140625-9.144531 0-5.046875 4.09375-9.140625 9.140625-9.140625h182.859375c5.050781 0 9.140625 4.09375 9.140625 9.140625 0 5.050781-4.089844 9.144531-9.140625 9.144531zm0 0"/><path d="m393.144531 137.1875h-73.144531c-5.046875 0-9.140625-4.09375-9.140625-9.144531 0-5.046875 4.09375-9.140625 9.140625-9.140625h73.144531c5.046875 0 9.140625 4.09375 9.140625 9.140625 0 5.050781-4.09375 9.144531-9.140625 9.144531zm0 0"/><path d="m365.714844 100.617188h-36.570313c-5.050781 0-9.144531-4.09375-9.144531-9.144532 0-5.046875 4.09375-9.140625 9.144531-9.140625h36.570313c5.050781 0 9.144531 4.09375 9.144531 9.140625 0 5.050782-4.09375 9.144532-9.144531 9.144532zm0 0"/><path d="m365.714844 173.757812h-36.570313c-5.050781 0-9.144531-4.09375-9.144531-9.140624 0-5.050782 4.09375-9.144532 9.144531-9.144532h36.570313c5.050781 0 9.144531 4.09375 9.144531 9.144532 0 5.046874-4.09375 9.140624-9.144531 9.140624zm0 0"/></g></svg>