<svg id="Capa_1" enable-background="new 0 0 512 512" height="512" viewBox="0 0 512 512" width="512" xmlns="http://www.w3.org/2000/svg"><g><path d="m428.06 181.799c0 1.65-.039 3.275-.078 4.912-3.119 129.384-128.513 186.356-154.907 297.832-.325 1.338-.663 2.898-1.027 4.665-3.587 17.388-28.499 17.388-32.099 0-.364-1.767-.702-3.327-1.014-4.665-9.903-41.82-33.736-75.959-59.819-109.137-17.089-21.729 1.875-54.803 43.175-110.632 23.847 9.929 60.789-17.088 80.192-36.491 21.495-21.482 46.633-64.565 32.169-89.699 44.458-42.21 63.335-56.683 74.018-36.202 12.385 23.758 19.39 50.775 19.39 79.417z" fill="#60a850"/><path d="m326.512 46.048-37.271 53.059c-22.508-6.888-61.924 18.404-79.728 36.207-10.461 10.461-27.121 7.75-29.057 21.343l-56.363-85.333c31.567-37.635 78.935-61.573 131.905-61.573 18.129 0 35.608 2.794 52.008 7.992 12.931 4.107 7.109 21.443 18.506 28.305z" fill="#4274eb"/><path d="m184.47 226.089-42.949 55.126c-8.265-12.515-33.568-3.86-39.767-17.648-10.318-22.976-17.05-48.122-17.739-76.856-.052-1.624-.078-3.262-.078-4.899 0-42.054 15.088-80.598 40.156-110.488l80.742 69.201c-16.765 20.729-32.516 62.705-20.365 85.564z" fill="#da2f2a"/><path d="m304.68 226.075-125.55 149.319c-28.109-35.725-58.805-70.332-77.518-112.191l103.198-122.73.039.026c-20.91 25.822-19.351 63.782 4.665 87.785 25.679 25.679 67.304 25.679 92.97 0 .741-.741 1.456-1.495 2.144-2.261z" fill="#ecb72b"/><path d="m304.628 226.023c.442-.481.871-.962 1.3-1.443l-1.248 1.495z" fill="#5085f7"/><path d="m408.67 102.384-102.743 122.197c22.183-25.835 21.027-64.796-3.444-89.266-25.666-25.679-67.291-25.679-92.97 0-1.663 1.663-3.236 3.405-4.678 5.198l-.026-.026 103.198-122.73c43.678 13.827 79.805 44.613 100.663 84.627z" fill="#5085f7"/><path d="m256 0c-100.245 0-181.801 81.556-181.801 181.802 0 1.734.029 3.461.076 5.145 1.817 75.522 43.184 127.075 83.189 176.931 31.281 38.984 60.827 75.805 71.984 122.911.298 1.26.619 2.732.961 4.386 2.57 12.456 12.854 20.825 25.59 20.825 12.737 0 23.021-8.369 25.591-20.822.342-1.656.664-3.129.963-4.39 11.156-47.105 40.702-83.927 71.983-122.911 40.004-49.856 81.371-101.408 83.187-176.892.048-1.722.078-3.449.078-5.183 0-100.246-81.556-181.802-181.801-181.802zm140.879 101.264-65.453 77.847c-.667-19.154-8.424-37.068-22.046-50.69-14.258-14.259-33.216-22.111-53.38-22.111-3.484 0-6.928.25-10.322.712l65.483-77.872c36.357 13.179 66.709 38.993 85.718 72.114zm-180.475 40.941c10.577-10.576 24.639-16.401 39.596-16.401s29.02 5.825 39.596 16.401c10.577 10.577 16.402 24.639 16.402 39.596 0 14.958-5.825 29.02-16.402 39.596s-24.639 16.401-39.596 16.401-29.02-5.825-39.596-16.401c-10.577-10.577-16.402-24.639-16.402-39.596s5.825-29.019 16.402-39.596zm39.596-122.712c11.896 0 23.493 1.298 34.668 3.74l-86.994 103.453-65.635-56.25c29.611-31.347 71.539-50.943 117.961-50.943zm-162.308 162.309c0-36.079 11.839-69.443 31.828-96.422l65.607 56.226-86.595 102.979c-6.335-17.762-10.259-36.898-10.77-58.146-.043-1.541-.07-3.086-.07-4.637zm19.311 82.998 67.57-80.354c.656 19.172 8.415 37.103 22.047 50.736 14.258 14.259 33.215 22.111 53.38 22.111 3.472 0 6.905-.249 10.288-.708l-86.952 103.418c-2.223-2.784-4.449-5.559-6.669-8.326-22.708-28.3-44.683-55.71-59.664-86.877zm305.233-78.323c-1.658 68.933-39.18 115.694-78.904 165.2-31.257 38.954-63.579 79.234-75.748 130.617-.336 1.418-.699 3.075-1.084 4.94-.982 4.758-4.873 5.272-6.501 5.272-1.627 0-5.519-.514-6.5-5.272-.385-1.864-.747-3.522-1.084-4.94-9.699-40.954-32.202-74.852-56.763-106.65l214.59-255.227c7.769 18.947 12.065 39.671 12.065 61.383.001 1.553-.026 3.098-.071 4.677z"/></g></svg>