<svg height="512" viewBox="0 0 512 512" width="512" xmlns="http://www.w3.org/2000/svg"><g id="Flat"><circle cx="144" cy="248" fill="#91d3ee" r="120"/><path d="m175.06 132.07007-31.06 115.92993-84.85-84.8501a120.12187 120.12187 0 0 1 115.91-31.07983z" fill="#eb4042"/><path d="m144 248h-120a119.58707 119.58707 0 0 1 35.15-84.8501z" fill="#2d80ba"/><path d="m144 248-60.01 103.93994a119.9606 119.9606 0 0 1 -59.99-103.93994z" fill="#b38fc2"/><path d="m228.85 332.8501a120.04945 120.04945 0 0 1 -144.86 19.08984l60.01-103.93994z" fill="#f5c533"/><path d="m192 192 40-40v-104h144v160h-144v-16z" fill="#f5e3a1"/><g fill="#f5c533"><path d="m272 72h32v16h-32z"/><path d="m320 72h32v16h-32z"/><path d="m256 104h32v16h-32z"/><path d="m304 104h48v16h-48z"/><path d="m256 136h64v16h-64z"/><path d="m336 136h16v16h-16z"/><path d="m256 168h48v16h-48z"/></g><path d="m32 432h48v32h-48z" fill="#eb4042"/><path d="m112 400h48v64h-48z" fill="#f5c533"/><path d="m192 320h48v144h-48z" fill="#2d80ba"/><path d="m272 352h48v112h-48z" fill="#b38fc2"/><path d="m352 336h48v128h-48z" fill="#91d3ee"/><path d="m432 232h48v232h-48z" fill="#a9ca2a"/><path d="m488 136h-48v16h27.43341l-172.4378 158.06836-74.8794-44.92871a8.00511 8.00511 0 0 0 -9.11377.61328l-160 128 9.99512 12.49414 155.65625-124.52539 75.23 45.13867a8.00131 8.00131 0 0 0 9.522-.96289l178.59419-163.71146v29.814h16v-48a8.00008 8.00008 0 0 0 -8-8z" fill="#a9ca2a"/><path d="m16 456h480v16h-480z" fill="#37a5ca"/></g></svg>