<svg height="512" viewBox="0 0 64 64" width="512" xmlns="http://www.w3.org/2000/svg"><g id="Strategy"><rect fill="#004fac" height="48" rx="4" width="56" x="3" y="9"/><path d="m6 12h50v42h-50z" fill="#ebbf00"/><path d="m53 12v13a26 26 0 0 1 -26 26h-21v3h50v-42z" fill="#ddb200"/><path d="m56.75 51a7.807 7.807 0 0 1 -.86 2.06l3.01 3.01-2.83 2.83-3.01-3.01a7.807 7.807 0 0 1 -2.06.86v4.25h-4v-4.25a7.807 7.807 0 0 1 -2.06-.86l-3.01 3.01-2.83-2.83 3.01-3.01a7.807 7.807 0 0 1 -.86-2.06h-4.25v-4h4.25a7.807 7.807 0 0 1 .86-2.06l-3.01-3.01 2.83-2.83 3.01 3.01a7.807 7.807 0 0 1 2.06-.86v-4.25h4v4.25a7.807 7.807 0 0 1 2.06.86l3.01-3.01 2.83 2.83-3.01 3.01a7.807 7.807 0 0 1 .86 2.06h4.25v4z" fill="#ff9811"/><circle cx="49" cy="49" fill="#f1f2f2" r="4"/><path d="m39 32h6l-3-5z" fill="#006df0"/><path d="m12 38h4v4h-4z" fill="#ed1c24"/><circle cx="31" cy="49" fill="#5eac24" r="2"/><g fill="#231f20"><path d="m61 46h-3.511a8.97 8.97 0 0 0 -.365-.879l2.483-2.484a1 1 0 0 0 0-1.414l-2.83-2.83a1 1 0 0 0 -1.414 0l-2.484 2.483a8.97 8.97 0 0 0 -.879-.365v-3.511a1 1 0 0 0 -1-1h-4a1 1 0 0 0 -1 1v3.511a8.97 8.97 0 0 0 -.879.365l-2.484-2.483a1 1 0 0 0 -1.414 0l-2.83 2.83a1 1 0 0 0 0 1.414l2.483 2.484a8.97 8.97 0 0 0 -.365.879h-3.511a1 1 0 0 0 -1 1v4a1 1 0 0 0 1 1h3.511a8.97 8.97 0 0 0 .365.879l-2.483 2.484a1 1 0 0 0 0 1.414l2.83 2.83a1 1 0 0 0 1.414 0l2.484-2.483a8.97 8.97 0 0 0 .879.365v3.511a1 1 0 0 0 1 1h4a1 1 0 0 0 1-1v-3.511a8.97 8.97 0 0 0 .879-.365l2.484 2.483a1 1 0 0 0 1.414 0l2.83-2.83a1 1 0 0 0 0-1.414l-2.483-2.484a8.97 8.97 0 0 0 .365-.879h3.511a1 1 0 0 0 1-1v-4a1 1 0 0 0 -1-1zm-1 4h-3.25a1 1 0 0 0 -.968.748 6.736 6.736 0 0 1 -.748 1.8 1 1 0 0 0 .149 1.224l2.3 2.3-1.413 1.414-2.3-2.3a1 1 0 0 0 -1.224-.149 6.736 6.736 0 0 1 -1.8.748 1 1 0 0 0 -.746.965v3.25h-2v-3.25a1 1 0 0 0 -.748-.968 6.736 6.736 0 0 1 -1.8-.748 1 1 0 0 0 -1.224.149l-2.3 2.3-1.414-1.413 2.3-2.3a1 1 0 0 0 .149-1.224 6.736 6.736 0 0 1 -.748-1.8 1 1 0 0 0 -.965-.746h-3.25v-2h3.25a1 1 0 0 0 .968-.748 6.736 6.736 0 0 1 .748-1.8 1 1 0 0 0 -.149-1.224l-2.3-2.3 1.416-1.416 2.3 2.3a1 1 0 0 0 1.224.149 6.736 6.736 0 0 1 1.8-.748 1 1 0 0 0 .743-.963v-3.25h2v3.25a1 1 0 0 0 .748.968 6.736 6.736 0 0 1 1.8.748 1 1 0 0 0 1.224-.149l2.3-2.3 1.416 1.416-2.3 2.3a1 1 0 0 0 -.149 1.224 6.736 6.736 0 0 1 .748 1.8 1 1 0 0 0 .963.743h3.25z"/><path d="m49 44a5 5 0 1 0 5 5 5.006 5.006 0 0 0 -5-5zm0 8a3 3 0 1 1 3-3 3 3 0 0 1 -3 3z"/><path d="m50 9a1 1 0 0 0 1 1h4a3 3 0 0 1 3 3v24a1 1 0 0 0 2 0v-24a5.006 5.006 0 0 0 -5-5h-4a1 1 0 0 0 -1 1z"/><path d="m11 56h-4a3 3 0 0 1 -3-3v-40a3 3 0 0 1 3-3h36a1 1 0 0 0 0-2h-36a5.006 5.006 0 0 0 -5 5v40a5.006 5.006 0 0 0 5 5h4a1 1 0 0 0 0-2z"/><path d="m35 56h-16a1 1 0 0 0 0 2h16a1 1 0 0 0 0-2z"/><path d="m56 36a1 1 0 0 0 1-1v-22a2 2 0 0 0 -2-2h-4a1 1 0 0 0 0 2h4v22a1 1 0 0 0 1 1z"/><path d="m11 53h-4v-40h36a1 1 0 0 0 0-2h-36a2 2 0 0 0 -2 2v40a2 2 0 0 0 2 2h4a1 1 0 0 0 0-2z"/><path d="m36 53h-17a1 1 0 0 0 0 2h17a1 1 0 0 0 0-2z"/><path d="m33.964 33.732a3.021 3.021 0 0 1 .5.558 1 1 0 1 0 1.641-1.143 5.012 5.012 0 0 0 -.832-.926 1 1 0 0 0 -1.31 1.511z"/><path d="m35.138 43.892a5.02 5.02 0 0 0 .862-.892 1 1 0 1 0 -1.6-1.2 2.987 2.987 0 0 1 -.521.539 1 1 0 0 0 1.257 1.556z"/><path d="m30.714 43h-1a1 1 0 0 0 0 2h1a1 1 0 0 0 0-2z"/><path d="m25.857 31h-1a1 1 0 0 0 0 2h1a1 1 0 0 0 0-2z"/><path d="m20.714 43h-1a1 1 0 0 0 0 2h1a1 1 0 0 0 0-2z"/><path d="m22.571 21h1a1 1 0 0 0 0-2h-1a1 1 0 1 0 0 2z"/><path d="m20.857 31h-.97a.968.968 0 0 0 -1.03.969 1 1 0 0 0 .969 1.031h1.031a1 1 0 0 0 0-2z"/><path d="m27.571 21h1a1 1 0 0 0 0-2h-1a1 1 0 1 0 0 2z"/><path d="m37 38.571v-1a1 1 0 0 0 -2 0v1a1 1 0 0 0 2 0z"/><path d="m33.571 19h-1a1 1 0 1 0 0 2h1a1 1 0 0 0 0-2z"/><path d="m25.714 43h-1a1 1 0 0 0 0 2h1a1 1 0 0 0 0-2z"/><path d="m30.857 31h-1a1 1 0 0 0 0 2h1a1 1 0 0 0 0-2z"/><path d="m16 26.143a1 1 0 0 0 1-1v-1a1 1 0 0 0 -2 0v1a1 1 0 0 0 1 1z"/><path d="m15 59a1 1 0 0 0 -1 1v1a1 1 0 0 0 2 0v-1a1 1 0 0 0 -1-1z"/><path d="m38.571 21a1 1 0 0 0 0-2h-1a1 1 0 0 0 0 2z"/><path d="m15 54a1 1 0 0 0 -1 1v1a1 1 0 0 0 2 0v-1a1 1 0 0 0 -1-1z"/><path d="m18.95 21.188a1 1 0 1 0 -.7-1.874 4.985 4.985 0 0 0 -1.106.579 1 1 0 0 0 1.143 1.642 3.017 3.017 0 0 1 .663-.347z"/><path d="m15.342 44.592a4.979 4.979 0 0 0 -.731 1.011 1 1 0 1 0 1.755.959 2.991 2.991 0 0 1 .438-.6 1 1 0 1 0 -1.462-1.365z"/><path d="m17.121 28.848a1 1 0 1 0 -1.92.559 4.923 4.923 0 0 0 .5 1.146 1 1 0 0 0 1.718-1.024 2.962 2.962 0 0 1 -.298-.681z"/><path d="m15 49a1 1 0 0 0 -1 1v1a1 1 0 0 0 2 0v-1a1 1 0 0 0 -1-1z"/><path d="m46.639 18.662a1 1 0 0 0 .91-.584 4.985 4.985 0 0 0 .373-1.19 1 1 0 0 0 -1.969-.355 2.989 2.989 0 0 1 -.223.714 1 1 0 0 0 .909 1.415z"/><path d="m43 21a5.014 5.014 0 0 0 .709-.05 1 1 0 1 0 -.28-1.98 3.03 3.03 0 0 1 -.429.03h-.429a1 1 0 0 0 0 2z"/><path d="m48 11.714a1 1 0 1 0 -2 0v1a1 1 0 0 0 2 0z"/><path d="m48 6.714a1 1 0 1 0 -2 0v1a1 1 0 0 0 2 0z"/><path d="m44.707 6.707 2.293-2.293 2.293 2.293a1 1 0 0 0 1.414-1.414l-3-3a1 1 0 0 0 -1.414 0l-3 3a1 1 0 0 0 1.414 1.414z"/><path d="m39 33h6a1 1 0 0 0 .857-1.515l-3-5a1.039 1.039 0 0 0 -1.714 0l-3 5a1 1 0 0 0 .857 1.515zm3-4.056 1.234 2.056h-2.468z"/><path d="m17 42v-4a1 1 0 0 0 -1-1h-4a1 1 0 0 0 -1 1v4a1 1 0 0 0 1 1h4a1 1 0 0 0 1-1zm-2-1h-2v-2h2z"/><path d="m10.879 20.121a1 1 0 0 0 1.414 0l.707-.707.707.707a1 1 0 1 0 1.414-1.414l-.707-.707.707-.707a1 1 0 1 0 -1.414-1.414l-.707.707-.707-.707a1 1 0 1 0 -1.414 1.414l.707.707-.707.707a1 1 0 0 0 0 1.414z"/><path d="m31 52a3 3 0 1 0 -3-3 3 3 0 0 0 3 3zm0-4a1 1 0 1 1 -1 1 1 1 0 0 1 1-1z"/></g></g></svg>