<svg height="512" viewBox="0 0 64 64" width="512" xmlns="http://www.w3.org/2000/svg"><g id="Check_in_desk" data-name="Check in desk"><path d="m57 26h-5v-5a5 5 0 0 0 -2.975-4.563 5.978 5.978 0 0 0 1.975-4.437v-2a5.968 5.968 0 0 0 -.375-2.068 3 3 0 1 0 -3.557-3.557 5.983 5.983 0 0 0 -8.068 5.625v2a5.978 5.978 0 0 0 1.975 4.437 5 5 0 0 0 -2.975 4.563v5h-4v-2h2a1 1 0 0 0 1-1v-20a1 1 0 0 0 -1-1h-33a1 1 0 0 0 -1 1v20a1 1 0 0 0 1 1h13v13a1 1 0 0 0 1 1h1v23a1 1 0 0 0 1 1h36a1 1 0 0 0 1-1v-29h1a1 1 0 0 0 1-1v-4a1 1 0 0 0 -1-1zm-16-15.279 2.092-.7 5.908.847v1.132a4 4 0 0 1 -8 0zm9-6.721a1 1 0 1 1 -1 1 1 1 0 0 1 1-1zm-5 2a3.993 3.993 0 0 1 3.8 2.818l-5.66-.808a.989.989 0 0 0 -.458.042l-1.391.463a4 4 0 0 1 3.709-2.515zm-5 15a3 3 0 0 1 3-3h1v2h-1v2h4v-2h-1v-2h1a3 3 0 0 1 3 3v5h-10zm-22 15v-13a3 3 0 0 1 3-3h8a3 3 0 0 1 3 3v13zm3-22v-2a4 4 0 0 1 8 0v2a4 4 0 0 1 -8 0zm-4.9 8h-12.1v-18h31v18h-1.1a4.994 4.994 0 0 0 -4.478-3.957 5.973 5.973 0 0 0 1.578-4.043v-2a6 6 0 0 0 -12 0v2a5.973 5.973 0 0 0 1.579 4.043 4.994 4.994 0 0 0 -4.479 3.957zm9.9 38v-17h-2v17h-4v-22h10v22zm28 0h-22v-22h1a1 1 0 0 0 1-1v-5h20zm2-30h-22v-2h22z"/><path d="m36 44h13a1 1 0 0 0 1-1v-6a1 1 0 0 0 -1-1h-13a1 1 0 0 0 -1 1v6a1 1 0 0 0 1 1zm1-6h11v4h-11z"/><path d="m35 48h15v2h-15z"/><path d="m35 54h15v2h-15z"/><path d="m13 42h-1v-8h1v-2h-8v2h1v8h-1a3 3 0 0 0 -3 3v14a3 3 0 0 0 3 3h8a3 3 0 0 0 3-3v-14a3 3 0 0 0 -3-3zm-5-8h2v8h-2zm2 10v16h-2v-16zm-6 15v-14a1 1 0 0 1 1-1h1v16h-1a1 1 0 0 1 -1-1zm10 0a1 1 0 0 1 -1 1h-1v-16h1a1 1 0 0 1 1 1z"/><path d="m8 6h8v2h-8z"/><path d="m8 12h8v2h-8z"/><path d="m8 18h8v2h-8z"/></g></svg>