<svg height="512" viewBox="0 0 512 512" width="512" xmlns="http://www.w3.org/2000/svg"><g id="Fill_out_line" data-name="Fill out line"><path d="m80 176h272a32 32 0 0 1 32 32v168a32 32 0 0 1 -32 32h-272a32 32 0 0 1 -32-32v-168a32 32 0 0 1 32-32z" fill="#90d2ed"/><path d="m384 376a32 32 0 0 1 -32 32h-272a32 32 0 0 1 -32-32z" fill="#37a4c9"/><g fill="#90d2ed"><path d="m264 488h-96a28.92625 28.92625 0 0 0 16-25.89v-54.11h64v54.11a28.93916 28.93916 0 0 0 16 25.89z"/><path d="m384 488h-136a16 16 0 0 1 -16-16 16 16 0 0 1 16-16h136z"/><path d="m457.75377 456h-103.50757a8 8 0 0 1 -7.76114-9.94029l20-80a8 8 0 0 1 7.76114-6.05971h103.50757a8 8 0 0 1 7.76114 9.94029l-20 80a8 8 0 0 1 -7.76114 6.05971z"/></g><path d="m425.75377 456h-71.50757a8 8 0 0 1 -7.76114-9.94029l20-80a8 8 0 0 1 7.76114-6.05971h71.50757a8 8 0 0 1 7.76114 9.94029l-20 80a8 8 0 0 1 -7.76114 6.05971z" fill="#a8c92a"/><rect fill="#37a4c9" height="32" rx="16" width="136" x="336" y="456"/><path d="m184 216v-192h304v192h-200l-64 64v-64z" fill="#f4e2a0"/><path d="m80 304h128v184h-128z" fill="#a8c92a"/><path d="m24 360h80v128h-80z" fill="#90d2ed"/><path d="m104 496h-80a7.99977 7.99977 0 0 1 -8-8v-128a7.99977 7.99977 0 0 1 8-8h80a7.99977 7.99977 0 0 1 8 8v128a7.99977 7.99977 0 0 1 -8 8zm-72-16h64v-112h-64z"/><path d="m48 376h32v16h-32z"/><circle cx="64" cy="464" r="8"/><circle cx="144" cy="464" r="8"/><path d="m328 400v16h-72v16h-16v-16h-8v-16z"/><path d="m376 240h16v96h-16z"/><path d="m56 336h-16v-128a40.04521 40.04521 0 0 1 40-40h80v16h-80a24.0275 24.0275 0 0 0 -24 24z"/><path d="m232 368h104v16h-104z"/><path d="m493.28 371.88a15.99516 15.99516 0 0 0 -15.53-19.88h-103.5a15.98284 15.98284 0 0 0 -15.53 12.12l-20 80a16.10335 16.10335 0 0 0 -.48 3.88h-90.24a24 24 0 0 0 0 48h208a23.9852 23.9852 0 0 0 16.38-41.52 16.28724 16.28724 0 0 0 .9-2.6zm-163.9 108.12h-81.38a8 8 0 0 1 0-16h81.38a23.87841 23.87841 0 0 0 0 16zm44.87-112h71.5l-20 80h-71.5zm81.75 112h-104a8 8 0 0 1 0-16h104a8 8 0 0 1 0 16zm1.75-32v.07007c-.57007-.05007-1.15991-.07007-1.75-.07007h-13.75l19.03-76.12a16.10409 16.10409 0 0 0 .48-3.88h15.99z"/><path d="m223.99805 288a7.99971 7.99971 0 0 1 -7.99805-8v-56h-32a7.99977 7.99977 0 0 1 -8-8v-192a7.99977 7.99977 0 0 1 8-8h304a7.99977 7.99977 0 0 1 8 8v192a7.99977 7.99977 0 0 1 -8 8h-196.686l-61.65722 61.65674a7.99905 7.99905 0 0 1 -5.65873 2.34326zm-31.99805-80h32a7.99977 7.99977 0 0 1 8 8v44.686l50.34326-50.34278a7.99877 7.99877 0 0 1 5.65674-2.34322h192v-176h-288z"/><path d="m240 48h32v16h-32z"/><path d="m288 48h48v16h-48z"/><path d="m352 48h112v16h-112z"/><path d="m208 80h96v16h-96z"/><path d="m320 80h80v16h-80z"/><path d="m416 80h48v16h-48z"/><path d="m352 112h112v16h-112z"/><path d="m256 112h80v16h-80z"/><path d="m208 112h32v16h-32z"/><path d="m208 144h64v16h-64z"/><path d="m288 144h32v16h-32z"/><path d="m336 144h128v16h-128z"/><path d="m208 176h48v16h-48z"/><path d="m272 176h96v16h-96z"/><path d="m208 496h-80v-16h72v-168h-112v24h-16v-32a7.99977 7.99977 0 0 1 8-8h128a7.99977 7.99977 0 0 1 8 8v184a7.99977 7.99977 0 0 1 -8 8z"/><path d="m128 320h32v16h-32z"/></g></svg>